<svg id="facebook" width="19" height="19" viewBox="0 0 19 19" fill="none" xmlns="http://www.w3.org/2000/svg">
    <path d="M17.5065 0.5H1.4935C1.23001 0.5 0.977307 0.604672 0.790989 0.790989C0.604672 0.977307 0.5 1.23001 0.5 1.4935V17.5068C0.500066 17.7702 0.604768 18.0228 0.791078 18.2091C0.977388 18.3954 1.23005 18.5 1.4935 18.5H10.1143V11.5295H7.7685V8.813H10.1143V6.8095C10.1143 4.4845 11.5343 3.21875 13.6082 3.21875C14.6017 3.21875 15.4555 3.2925 15.7045 3.32575V5.7555L14.266 5.75625C13.138 5.75625 12.9198 6.29225 12.9198 7.07875V8.81325H15.6098L15.2595 11.5297H12.9198V18.5H17.5068C17.7702 18.4999 18.0228 18.3952 18.2091 18.2089C18.3954 18.0226 18.5 17.7699 18.5 17.5065V1.4935C18.5 1.23001 18.3953 0.977307 18.209 0.790989C18.0227 0.604672 17.77 0.5 17.5065 0.5Z" fill="#151515"/>
</svg>