<svg id="linkedin" width="19" height="19" viewBox="0 0 19 19" fill="none" xmlns="http://www.w3.org/2000/svg">
     <path d="M17.1667 0.5H1.82875C1.09525 0.5 0.5 1.08125 0.5 1.797V17.2013C0.5 17.918 1.09525 18.5 1.82875 18.5H17.1667C17.9007 18.5 18.5 17.918 18.5 17.2013V1.797C18.5 1.08125 17.9007 0.5 17.1667 0.5ZM5.8385 15.8385H3.1675V7.24875H5.8385V15.8385ZM4.503 6.07425C4.2997 6.07425 4.09838 6.03419 3.91057 5.95636C3.72275 5.87853 3.55211 5.76445 3.4084 5.62064C3.26469 5.47684 3.15072 5.30613 3.07301 5.11826C2.9953 4.93039 2.95537 4.72905 2.9555 4.52575C2.9555 4.11536 3.11853 3.72178 3.40872 3.43159C3.6989 3.1414 4.09249 2.97837 4.50287 2.97837C4.91326 2.97837 5.30685 3.1414 5.59703 3.43159C5.88722 3.72178 6.05025 4.11536 6.05025 4.52575C6.05025 4.93622 5.88728 5.3299 5.59715 5.62026C5.30702 5.91063 4.91347 6.07392 4.503 6.07425ZM15.8375 15.8385H13.1707V11.6615C13.1707 10.665 13.1512 9.38375 11.783 9.38375C10.3935 9.38375 10.1818 10.469 10.1818 11.5892V15.8388H7.513V7.24875H10.0743V8.42175H10.1108C10.4672 7.74675 11.3383 7.0345 12.6372 7.0345C15.3387 7.0345 15.8377 8.813 15.8377 11.1267V15.8385H15.8375Z" fill="#151515"/>
</svg>