<svg id="quote" width="21" height="15" viewBox="0 0 21 15" fill="none" xmlns="http://www.w3.org/2000/svg">
    <path d="M5.5 6C5.277 6 5.063 6.034 4.85 6.065C4.919 5.833 4.99 5.597 5.104 5.385C5.218 5.077 5.396 4.81 5.573 4.541C5.721 4.25 5.982 4.053 6.174 3.804C6.375 3.562 6.649 3.401 6.866 3.2C7.079 2.99 7.358 2.885 7.58 2.737C7.812 2.604 8.014 2.457 8.23 2.387L8.769 2.165L9.243 1.968L8.758 0.0300007L8.161 0.174C7.97 0.222 7.737 0.278 7.472 0.345C7.201 0.395 6.912 0.532001 6.59 0.657001C6.272 0.799001 5.904 0.895001 5.562 1.123C5.218 1.341 4.821 1.523 4.471 1.815C4.132 2.116 3.723 2.377 3.421 2.76C3.091 3.118 2.765 3.494 2.512 3.922C2.219 4.33 2.02 4.778 1.81 5.221C1.62 5.664 1.467 6.117 1.342 6.557C1.105 7.439 0.999 8.277 0.958 8.994C0.924 9.712 0.944 10.309 0.986 10.741C1.001 10.945 1.029 11.143 1.049 11.28L1.074 11.448L1.1 11.442C1.27786 12.2728 1.6873 13.0363 2.28096 13.6442C2.87462 14.252 3.62824 14.6794 4.45464 14.8768C5.28104 15.0743 6.14645 15.0337 6.95075 14.7598C7.75506 14.486 8.4654 13.99 8.99961 13.3293C9.53381 12.6686 9.87005 11.8701 9.96942 11.0263C10.0688 10.1825 9.92724 9.32776 9.56113 8.56102C9.19503 7.79429 8.61934 7.14686 7.90065 6.69365C7.18197 6.24043 6.34966 5.99994 5.5 6ZM16.5 6C16.277 6 16.063 6.034 15.85 6.065C15.919 5.833 15.99 5.597 16.104 5.385C16.218 5.077 16.396 4.81 16.573 4.541C16.721 4.25 16.982 4.053 17.174 3.804C17.375 3.562 17.649 3.401 17.866 3.2C18.079 2.99 18.358 2.885 18.58 2.737C18.812 2.604 19.014 2.457 19.23 2.387L19.769 2.165L20.243 1.968L19.758 0.0300007L19.161 0.174C18.97 0.222 18.737 0.278 18.472 0.345C18.201 0.395 17.912 0.532001 17.59 0.657001C17.273 0.800001 16.904 0.895001 16.562 1.124C16.218 1.342 15.821 1.524 15.471 1.816C15.132 2.117 14.723 2.378 14.421 2.76C14.091 3.118 13.765 3.494 13.512 3.922C13.219 4.33 13.02 4.778 12.81 5.221C12.62 5.664 12.467 6.117 12.342 6.557C12.105 7.439 11.999 8.277 11.958 8.994C11.924 9.712 11.944 10.309 11.986 10.741C12.001 10.945 12.029 11.143 12.049 11.28L12.074 11.448L12.1 11.442C12.2779 12.2728 12.6873 13.0363 13.281 13.6442C13.8746 14.252 14.6282 14.6794 15.4546 14.8768C16.281 15.0743 17.1464 15.0337 17.9508 14.7598C18.7551 14.486 19.4654 13.99 19.9996 13.3293C20.5338 12.6686 20.87 11.8701 20.9694 11.0263C21.0688 10.1825 20.9272 9.32776 20.5611 8.56102C20.195 7.79429 19.6193 7.14686 18.9007 6.69365C18.182 6.24043 17.3497 5.99994 16.5 6Z" fill="black"/>
</svg>