<svg id="skype" width="21" height="21" viewBox="0 0 21 21" fill="none" xmlns="http://www.w3.org/2000/svg">
    <path d="M19.571 12.5735C19.7097 11.9383 19.7838 11.2795 19.7838 10.6028C19.7838 5.53204 15.6733 1.42104 10.602 1.42104C10.067 1.42104 9.543 1.46754 9.03225 1.55579C8.18457 1.0205 7.20229 0.736997 6.19975 0.738286C3.2595 0.738286 0.875 3.12179 0.875 6.06329C0.875 7.04579 1.14225 7.96554 1.60725 8.75529C1.48341 9.3634 1.42109 9.98244 1.42125 10.603C1.42125 15.6735 5.53125 19.7843 10.602 19.7843C11.1768 19.7843 11.7383 19.7305 12.2843 19.6305C13.0579 20.0459 13.9224 20.2628 14.8005 20.2618C17.7413 20.2618 20.1252 17.879 20.1252 14.9375C20.1261 14.1172 19.9364 13.308 19.571 12.5735ZM15.3118 14.991C14.8865 15.5913 14.2587 16.0678 13.4462 16.4055C12.6405 16.741 11.676 16.9108 10.5765 16.9108C9.2585 16.9108 8.15275 16.6778 7.28975 16.2203C6.673 15.8863 6.16425 15.4358 5.77825 14.8788C5.388 14.3165 5.18975 13.758 5.18975 13.2198C5.18975 12.884 5.31925 12.5923 5.57325 12.3535C5.82475 12.1168 6.14675 11.9963 6.5315 11.9963C6.84675 11.9963 7.11925 12.0913 7.34 12.2778C7.55125 12.4573 7.73275 12.7218 7.87775 13.0648C8.04075 13.4368 8.2185 13.7518 8.40575 13.9998C8.58525 14.237 8.845 14.4383 9.176 14.5945C9.50825 14.7523 9.95725 14.8325 10.5092 14.8325C11.2682 14.8325 11.891 14.6703 12.3582 14.35C12.816 14.0378 13.0382 13.6633 13.0382 13.2043C13.0382 12.842 12.9218 12.5568 12.683 12.3338C12.4335 12.1003 12.1043 11.9183 11.704 11.7938C11.2868 11.6635 10.7195 11.5233 10.019 11.3763C9.0665 11.1723 8.25725 10.9303 7.61275 10.6563C6.9545 10.3763 6.4235 9.98779 6.03575 9.50204C5.64175 9.00804 5.44175 8.38904 5.44175 7.66154C5.44175 6.96804 5.65125 6.34329 6.06525 5.80354C6.476 5.26779 7.07575 4.85179 7.847 4.56629C8.6095 4.28404 9.516 4.14204 10.541 4.14204C11.361 4.14204 12.082 4.23679 12.6835 4.42329C13.2888 4.61279 13.7988 4.86604 14.2 5.18004C14.603 5.49554 14.904 5.83279 15.0917 6.18304C15.283 6.53704 15.3797 6.88979 15.3797 7.23079C15.3797 7.55879 15.253 7.85629 15.0028 8.11654C14.7513 8.37779 14.4345 8.51004 14.06 8.51004C13.72 8.51004 13.4537 8.42754 13.2692 8.26429C13.0972 8.11229 12.9188 7.87529 12.7215 7.53454C12.4923 7.10004 12.2157 6.75704 11.8977 6.51504C11.589 6.28054 11.073 6.16154 10.365 6.16154C9.706 6.16154 9.17075 6.29329 8.774 6.55404C8.39075 6.80504 8.205 7.09254 8.205 7.43429C8.205 7.64354 8.26475 7.81804 8.38775 7.96829C8.519 8.12829 8.70225 8.26704 8.9355 8.38429C9.17675 8.50529 9.425 8.60204 9.674 8.67054C9.93 8.74179 10.3572 8.84679 10.945 8.98204C11.6873 9.14229 12.3705 9.32054 12.974 9.51379C13.5852 9.70954 14.114 9.95104 14.5448 10.2315C14.9847 10.5173 15.333 10.8855 15.5807 11.3245C15.828 11.7658 15.9533 12.309 15.9533 12.9413C15.9533 13.6978 15.7375 14.3873 15.3118 14.991Z" fill="#151515"/>
</svg>