<svg id="twitter" width="21" height="17" viewBox="0 0 21 17" fill="none" xmlns="http://www.w3.org/2000/svg">
    <path d="M20.125 2.52998C19.4042 2.8493 18.6396 3.05879 17.8568 3.15148C18.6814 2.65808 19.2985 1.88168 19.593 0.966981C18.8179 1.42712 17.9697 1.75113 17.0853 1.92498C16.7157 1.53084 16.2692 1.21678 15.7733 1.00228C15.2774 0.787777 14.7428 0.677397 14.2025 0.677981C12.0215 0.677981 10.253 2.44598 10.253 4.62748C10.253 4.93673 10.288 5.23848 10.3555 5.52773C7.073 5.36298 4.163 3.79048 2.215 1.40073C1.86377 2.0035 1.67921 2.68885 1.68025 3.38648C1.67973 4.03673 1.83985 4.67705 2.14636 5.25052C2.45288 5.824 2.89631 6.31288 3.43725 6.67373C2.81018 6.65381 2.19692 6.48445 1.6485 6.17973C1.648 6.19623 1.648 6.21248 1.648 6.22948C1.648 8.14248 3.00925 9.73873 4.81575 10.102C4.23407 10.2595 3.62418 10.2825 3.03225 10.1695C3.53475 11.7382 4.99325 12.8805 6.7215 12.9125C5.32248 14.0104 3.59488 14.6059 1.8165 14.6032C1.49775 14.6032 1.1835 14.5847 0.874252 14.548C2.68009 15.7083 4.78179 16.3241 6.92825 16.322C14.1928 16.322 18.1653 10.3042 18.1653 5.08573C18.1653 4.91473 18.1612 4.74398 18.1537 4.57423C18.9274 4.01571 19.595 3.3234 20.125 2.52998Z" fill="#151515"/>
</svg>